# xmcd CD database file
#
# Track frame offsets:
#	183
#	11818
#	26660
#	50440
#	62983
#	85158
#	103195
#	118773
#	144858
#
# Disc length: 2310 seconds
#
# Revision: 1
# Processed by: cddbd v1.4PL0 Copyright (c) Steve Scherf et al.
# Submitted via: CDex 1.40Release
#
DISCID=78090409
DTITLE=Roberto Ciotti - Super Gasoline Blues
DYEAR=1900
DGENRE=Blues
TTITLE0=Hell Boogie
TTITLE1=Fisherman
TTITLE2=Castle Of Sand
TTITLE3=Bigroad Blues
TTITLE4=Tryng
TTITLE5=When Is My Time
TTITLE6=Need More
TTITLE7=Blues Plays Me
TTITLE8=Super Gasoline
EXTD=ID3G: 0
EXTT0=
EXTT1=
EXTT2=
EXTT3=
EXTT4=
EXTT5=
EXTT6=
EXTT7=
EXTT8=
PLAYORDER=
